<svg width="240" height="40" viewBox="0 0 240 40" fill="none" xmlns="http://www.w3.org/2000/svg">
<g clip-path="url(#clip0_95_59)">
<path d="M54.2478 33.1716V9.05673H70.1079V11.7908H57.2881V19.5044H68.9307V22.2386H57.2881V30.4409H70.1079V33.175L54.2478 33.1716Z" fill="white"/>
<path d="M75.1512 33.1716V9.05673H81.8187C85.7565 9.05673 88.807 10.123 90.9703 12.2556C93.1337 14.3882 94.2165 17.4049 94.2188 21.3055C94.2188 25.1333 93.1485 28.069 91.0079 30.1128C88.8673 32.1565 85.7962 33.1818 81.7948 33.1886L75.1512 33.1716ZM78.1915 30.3691H81.5048C83.2932 30.4173 85.073 30.1058 86.7392 29.4532C88.1372 28.879 89.296 27.8414 90.0217 26.514C90.7702 25.1652 91.1444 23.3948 91.1444 21.203C91.1444 19.0112 90.7702 17.234 90.0217 15.8715C89.3122 14.5354 88.1824 13.471 86.8074 12.8435C85.2215 12.1611 83.5067 11.8311 81.7812 11.8763H78.1915V30.3691Z" fill="white"/>
<path d="M99.402 33.1716V9.05673H102.442V33.1716H99.402Z" fill="white"/>
<path d="M106.967 33.1716V30.5673L121.37 10.8442L121.786 11.7806H107.796V9.04648H124.417V11.6063L110.253 30.9843L109.874 30.4306H124.833V33.1647L106.967 33.1716Z" fill="white"/>
<path d="M138.128 33.5885C136.131 33.6411 134.162 33.1073 132.464 32.0531C130.767 30.9989 129.414 29.4702 128.573 27.6555C127.615 25.6049 127.142 23.3606 127.191 21.0971C127.141 18.8382 127.62 16.5989 128.59 14.5591C129.456 12.767 130.809 11.2556 132.494 10.1982C134.248 9.13645 136.266 8.59595 138.315 8.63978C140.546 8.58571 142.739 9.214 144.604 10.4409C146.383 11.6472 147.727 13.3941 148.439 15.4238L145.607 16.4969C145.08 15.0251 144.115 13.7501 142.843 12.8435C141.526 12.0176 140.008 11.5697 138.455 11.5486C136.901 11.5276 135.372 11.9341 134.033 12.7238C132.794 13.5289 131.816 14.6771 131.218 16.0287C129.903 19.2852 129.903 22.926 131.218 26.1825C131.811 27.542 132.79 28.6971 134.033 29.5044C135.315 30.3077 136.803 30.7176 138.315 30.6835C139.179 30.681 140.04 30.5661 140.874 30.3418C141.754 30.1096 142.577 29.6977 143.29 29.1319C144.069 28.4997 144.681 27.6851 145.071 26.7601C145.562 25.5478 145.794 24.2465 145.754 22.9392V21.1723L146.436 23.2502H139.663V20.5161H148.439V33.1613H145.744L145.331 28.4587L145.846 28.838C145.48 29.8729 144.863 30.8006 144.051 31.5379C143.256 32.2331 142.327 32.7566 141.321 33.0759C140.291 33.4152 139.213 33.5883 138.128 33.5885Z" fill="white"/>
<path d="M154.121 33.1716V9.05673H161.307C163.149 9.05673 164.658 9.32787 165.832 9.87013C166.933 10.3477 167.854 11.1656 168.459 12.2044C169.058 13.3194 169.355 14.5717 169.322 15.8373C169.322 17.8423 168.747 19.4281 167.596 20.5947C166.445 21.7612 164.774 22.4448 162.583 22.6453C162.242 22.6658 161.826 22.6794 161.341 22.6794H157.175V33.1613L154.121 33.1716ZM157.161 19.9897H160.996C161.934 20.0089 162.869 19.8691 163.76 19.5762C164.494 19.3348 165.138 18.876 165.606 18.2604C166.047 17.5404 166.28 16.7125 166.28 15.8681C166.28 15.0237 166.047 14.1957 165.606 13.4757C165.13 12.8686 164.48 12.4215 163.743 12.1941C162.86 11.9181 161.939 11.7843 161.013 11.7977H157.175L157.161 19.9897ZM167.596 33.1716L161.341 22.3069L164.45 21.9275L171.083 33.1716H167.596Z" fill="white"/>
<path d="M185.039 33.5885C182.99 33.6323 180.971 33.0919 179.218 32.0301C177.533 30.9745 176.18 29.4641 175.314 27.6726C174.392 25.6101 173.915 23.3757 173.915 21.1158C173.915 18.856 174.392 16.6216 175.314 14.5591C176.18 12.767 177.533 11.2556 179.218 10.1982C180.971 9.13645 182.99 8.59595 185.039 8.63978C187.119 8.58997 189.17 9.13024 190.956 10.1982C192.648 11.2514 194.008 12.7635 194.877 14.5591C195.849 16.6103 196.328 18.8612 196.276 21.1312C196.325 23.393 195.84 25.6344 194.859 27.6726C193.981 29.4672 192.615 30.9774 190.918 32.0301C189.145 33.0953 187.106 33.6357 185.039 33.5885ZM185.039 30.6835C186.548 30.7481 188.041 30.3523 189.32 29.5486C190.6 28.7449 191.606 27.5711 192.205 26.1825C193.542 22.9364 193.542 19.2919 192.205 16.0458C191.706 15.0432 191.005 14.1548 190.146 13.4366C189.288 12.7183 188.29 12.1856 187.217 11.872C186.143 11.5585 185.016 11.4707 183.906 11.6144C182.797 11.758 181.729 12.1299 180.77 12.7068C179.527 13.5059 178.547 14.6558 177.955 16.0116C176.64 19.2858 176.64 22.9425 177.955 26.2167C178.546 27.5732 179.526 28.7234 180.77 29.5215C182.052 30.3122 183.534 30.7157 185.039 30.6835Z" fill="white"/>
<path d="M210.017 33.5885C207.162 33.5885 204.979 32.8161 203.469 31.2714C201.958 29.7266 201.199 27.4539 201.193 24.4532V9.05673H204.264V24.0943C204.231 25.3412 204.424 26.5836 204.833 27.7614C205.172 28.7025 205.826 29.4971 206.683 30.0103C207.534 30.5206 208.651 30.7747 210.034 30.7724C211.206 30.8227 212.37 30.5534 213.402 29.9932C214.266 29.4719 214.93 28.6735 215.285 27.7273C215.702 26.5558 215.899 25.3171 215.865 24.0738V9.05673H218.871V24.2823C218.871 27.3263 218.117 29.6377 216.609 31.2167C215.101 32.7956 212.903 33.5863 210.017 33.5885Z" fill="white"/>
<path d="M224.802 33.1716V9.05673H231.988C234.588 9.05673 236.574 9.63317 237.946 10.7861C239.318 11.9389 240 13.6341 239.993 15.8715C239.993 18.1089 239.302 19.8177 237.919 20.998C236.535 22.1782 234.555 22.7717 231.978 22.7785H227.808V33.1579L224.802 33.1716ZM227.808 20.0957H231.678C233.336 20.0957 234.631 19.7539 235.564 19.0704C236.497 18.3869 236.963 17.332 236.963 15.9057C236.963 14.4976 236.508 13.4586 235.598 12.7888C234.688 12.1189 233.381 11.7851 231.678 11.7874H227.808V20.0957Z" fill="white"/>
<path d="M26.8646 0.020505L22.8382 2.33425C22.1897 2.70368 21.4566 2.89792 20.7106 2.89792C19.9646 2.89792 19.2315 2.70368 18.5831 2.33425L14.5601 0L13.3282 2.14285L17.3512 4.4771C18.0005 4.85176 18.5398 5.39112 18.9148 6.04088C19.2898 6.69065 19.4872 7.42789 19.4873 8.1784V12.8264H21.9544V8.1784C21.9578 7.42858 22.1568 6.69268 22.5314 6.0435C22.9061 5.39433 23.4435 4.85439 24.0904 4.4771L28.1169 2.15995L26.8646 0.020505Z" fill="white"/>
<path d="M8.60908 35.9125V31.2509C8.61325 30.5012 8.81244 29.7655 9.18702 29.1165C9.5616 28.4674 10.0986 27.9274 10.7451 27.5496L14.7716 25.2324L13.5398 23.093L9.51333 25.4067C8.86493 25.7761 8.13178 25.9704 7.38581 25.9704C6.63983 25.9704 5.90668 25.7761 5.25828 25.4067L1.23523 23.0861L1.66613e-06 25.229L4.02646 27.5632C4.67343 27.9405 5.21082 28.4804 5.58547 29.1296C5.96011 29.7788 6.15899 30.5147 6.16249 31.2645V35.9125H8.60908Z" fill="white"/>
<path d="M35.2211 35.933V31.285C35.2257 30.535 35.4251 29.799 35.7996 29.1495C36.1741 28.5 36.7109 27.9592 37.3572 27.5803L41.3837 25.2666L40.1519 23.1271L36.1254 25.4409C35.477 25.8103 34.7438 26.0045 33.9979 26.0045C33.2519 26.0045 32.5188 25.8103 31.8703 25.4409L27.8507 23.1066L26.6155 25.2461L30.6419 27.5803C31.291 27.9561 31.83 28.4961 32.2049 29.1464C32.5799 29.7966 32.7775 30.5341 32.778 31.285V35.933H35.2211Z" fill="white"/>
<path d="M38.2819 11.6883L37.0638 9.54887L25.1209 16.4388C25.6386 17.0896 26.0088 17.8452 26.206 18.6535L38.2819 11.6883Z" fill="white"/>
<path d="M19.4669 25.6288V39.9829L21.9339 40.0034V25.6015C21.5109 25.6995 21.0782 25.7488 20.6441 25.7485C20.2486 25.749 19.8541 25.7089 19.4669 25.6288Z" fill="white"/>
<path d="M4.39156 9.50787L3.15974 11.6507L15.1026 18.5714C15.3118 17.7624 15.695 17.0089 16.2252 16.3636L4.39156 9.50787Z" fill="white"/>
<path d="M20.7191 23.1066C22.4322 23.1066 23.8209 21.7157 23.8209 20C23.8209 18.2843 22.4322 16.8934 20.7191 16.8934C19.0061 16.8934 17.6174 18.2843 17.6174 20C17.6174 21.7157 19.0061 23.1066 20.7191 23.1066Z" fill="white"/>
<path d="M20.7191 23.1066C22.4322 23.1066 23.8209 21.7157 23.8209 20C23.8209 18.2843 22.4322 16.8934 20.7191 16.8934C19.0061 16.8934 17.6174 18.2843 17.6174 20C17.6174 21.7157 19.0061 23.1066 20.7191 23.1066Z" fill="white"/>
</g>
<defs>
<clipPath id="clip0_95_59">
<rect width="240" height="40" fill="white"/>
</clipPath>
</defs>
</svg>
