<svg width="240" height="40" viewBox="0 0 240 40" fill="none" xmlns="http://www.w3.org/2000/svg">
<g clip-path="url(#clip0_95_358)">
<path d="M54.2478 33.1715V9.05664H70.1079V11.7907H57.2881V19.5044H68.9307V22.2385H57.2881V30.4408H70.1079V33.1749L54.2478 33.1715Z" fill="#000080"/>
<path d="M75.1512 33.1715V9.05664H81.8187C85.7565 9.05664 88.807 10.1229 90.9703 12.2555C93.1337 14.3881 94.2165 17.4048 94.2188 21.3055C94.2188 25.1332 93.1485 28.0689 91.0079 30.1127C88.8673 32.1564 85.7962 33.1817 81.7948 33.1886L75.1512 33.1715ZM78.1915 30.369H81.5048C83.2932 30.4172 85.073 30.1057 86.7392 29.4531C88.1372 28.8789 89.296 27.8413 90.0217 26.5139C90.7702 25.1651 91.1444 23.3948 91.1444 21.2029C91.1444 19.0111 90.7702 17.2339 90.0217 15.8714C89.3122 14.5353 88.1824 13.471 86.8074 12.8434C85.2215 12.161 83.5067 11.831 81.7812 11.8762H78.1915V30.369Z" fill="#000080"/>
<path d="M99.402 33.1715V9.05664H102.442V33.1715H99.402Z" fill="#000080"/>
<path d="M106.967 33.1715V30.5672L121.37 10.8441L121.786 11.7805H107.796V9.04639H124.417V11.6062L110.253 30.9842L109.874 30.4305H124.833V33.1646L106.967 33.1715Z" fill="#000080"/>
<path d="M138.128 33.5884C136.131 33.641 134.162 33.1073 132.464 32.053C130.767 30.9988 129.414 29.4701 128.573 27.6554C127.615 25.6048 127.142 23.3605 127.191 21.097C127.141 18.8381 127.62 16.5988 128.59 14.559C129.456 12.7669 130.809 11.2555 132.494 10.1981C134.248 9.13636 136.266 8.59587 138.315 8.63969C140.546 8.58562 142.739 9.21392 144.604 10.4408C146.383 11.6471 147.727 13.394 148.439 15.4237L145.607 16.4968C145.08 15.025 144.115 13.75 142.843 12.8434C141.526 12.0175 140.008 11.5697 138.455 11.5486C136.901 11.5275 135.372 11.934 134.033 12.7238C132.794 13.5288 131.816 14.677 131.218 16.0286C129.903 19.2851 129.903 22.9259 131.218 26.1824C131.811 27.5419 132.79 28.697 134.033 29.5044C135.315 30.3076 136.803 30.7175 138.315 30.6835C139.179 30.6809 140.04 30.566 140.874 30.3417C141.754 30.1095 142.577 29.6976 143.29 29.1318C144.069 28.4996 144.681 27.6851 145.071 26.76C145.562 25.5478 145.794 24.2464 145.754 22.9391V21.1722L146.436 23.2501H139.663V20.516H148.439V33.1612H145.744L145.331 28.4586L145.846 28.8379C145.48 29.8728 144.863 30.8005 144.051 31.5379C143.256 32.233 142.327 32.7566 141.321 33.0758C140.291 33.4151 139.213 33.5882 138.128 33.5884Z" fill="#000080"/>
<path d="M154.121 33.1715V9.05664H161.307C163.149 9.05664 164.658 9.32777 165.832 9.87004C166.933 10.3476 167.854 11.1655 168.459 12.2043C169.058 13.3193 169.355 14.5716 169.322 15.8372C169.322 17.8423 168.747 19.428 167.596 20.5946C166.445 21.7611 164.774 22.4447 162.583 22.6452C162.242 22.6657 161.826 22.6793 161.341 22.6793H157.175V33.1612L154.121 33.1715ZM157.161 19.9897H160.996C161.934 20.0088 162.869 19.869 163.76 19.5761C164.494 19.3347 165.138 18.8759 165.606 18.2603C166.047 17.5403 166.28 16.7124 166.28 15.868C166.28 15.0236 166.047 14.1957 165.606 13.4756C165.13 12.8685 164.48 12.4214 163.743 12.194C162.86 11.918 161.939 11.7842 161.013 11.7976H157.175L157.161 19.9897ZM167.596 33.1715L161.341 22.3068L164.45 21.9274L171.083 33.1715H167.596Z" fill="#000080"/>
<path d="M185.039 33.5886C182.99 33.6324 180.971 33.0919 179.218 32.0302C177.533 30.9746 176.18 29.4642 175.314 27.6727C174.392 25.6102 173.915 23.3758 173.915 21.1159C173.915 18.8561 174.392 16.6217 175.314 14.5592C176.18 12.7671 177.533 11.2557 179.218 10.1983C180.971 9.13655 182.99 8.59605 185.039 8.63988C187.119 8.59007 189.17 9.13034 190.956 10.1983C192.648 11.2515 194.008 12.7636 194.877 14.5592C195.849 16.6104 196.328 18.8613 196.276 21.1313C196.325 23.3931 195.84 25.6345 194.859 27.6727C193.981 29.4673 192.615 30.9775 190.918 32.0302C189.145 33.0954 187.106 33.6358 185.039 33.5886ZM185.039 30.6836C186.548 30.7482 188.041 30.3524 189.32 29.5487C190.6 28.745 191.606 27.5712 192.205 26.1826C193.542 22.9365 193.542 19.292 192.205 16.0459C191.706 15.0433 191.005 14.1549 190.146 13.4367C189.288 12.7184 188.29 12.1857 187.217 11.8721C186.143 11.5586 185.016 11.4708 183.906 11.6145C182.797 11.7581 181.729 12.13 180.77 12.7069C179.527 13.506 178.547 14.6559 177.955 16.0117C176.64 19.2859 176.64 22.9426 177.955 26.2168C178.546 27.5732 179.526 28.7235 180.77 29.5216C182.052 30.3123 183.534 30.7158 185.039 30.6836Z" fill="#000080"/>
<path d="M210.017 33.5884C207.162 33.5884 204.979 32.816 203.469 31.2713C201.958 29.7265 201.199 27.4538 201.193 24.4531V9.05664H204.264V24.0942C204.231 25.3411 204.424 26.5835 204.833 27.7614C205.172 28.7024 205.826 29.497 206.683 30.0102C207.534 30.5205 208.651 30.7746 210.034 30.7723C211.206 30.8226 212.37 30.5533 213.402 29.9931C214.266 29.4718 214.93 28.6734 215.285 27.7272C215.702 26.5557 215.899 25.317 215.865 24.0737V9.05664H218.871V24.2822C218.871 27.3262 218.117 29.6376 216.609 31.2166C215.101 32.7955 212.903 33.5862 210.017 33.5884Z" fill="#000080"/>
<path d="M224.802 33.1715V9.05664H231.988C234.588 9.05664 236.574 9.63308 237.946 10.786C239.318 11.9388 240 13.634 239.993 15.8714C239.993 18.1088 239.302 19.8176 237.919 20.9979C236.535 22.1781 234.555 22.7716 231.978 22.7785H227.808V33.1578L224.802 33.1715ZM227.808 20.0956H231.678C233.336 20.0956 234.631 19.7538 235.564 19.0703C236.497 18.3868 236.963 17.3319 236.963 15.9056C236.963 14.4975 236.508 13.4585 235.598 12.7887C234.688 12.1188 233.381 11.785 231.678 11.7873H227.808V20.0956Z" fill="#000080"/>
<path d="M26.8646 0.020505L22.8382 2.33425C22.1897 2.70368 21.4566 2.89792 20.7106 2.89792C19.9646 2.89792 19.2315 2.70368 18.5831 2.33425L14.5601 0L13.3282 2.14285L17.3512 4.4771C18.0005 4.85176 18.5398 5.39112 18.9148 6.04088C19.2898 6.69065 19.4872 7.42789 19.4873 8.1784V12.8264H21.9544V8.1784C21.9578 7.42858 22.1568 6.69268 22.5314 6.0435C22.9061 5.39433 23.4435 4.85439 24.0904 4.4771L28.1169 2.15995L26.8646 0.020505Z" fill="#000080"/>
<path d="M8.60908 35.9126V31.2509C8.61325 30.5012 8.81244 29.7656 9.18702 29.1165C9.5616 28.4675 10.0986 27.9274 10.7451 27.5496L14.7716 25.2325L13.5398 23.093L9.51333 25.4068C8.86493 25.7762 8.13178 25.9704 7.38581 25.9704C6.63983 25.9704 5.90668 25.7762 5.25828 25.4068L1.23523 23.0862L1.66613e-06 25.229L4.02646 27.5633C4.67343 27.9406 5.21082 28.4805 5.58547 29.1297C5.96011 29.7789 6.15899 30.5148 6.16249 31.2646V35.9126H8.60908Z" fill="#000080"/>
<path d="M35.2211 35.9331V31.2851C35.2257 30.535 35.4251 29.7991 35.7996 29.1496C36.1741 28.5 36.7109 27.9593 37.3572 27.5804L41.3837 25.2666L40.1519 23.1272L36.1254 25.4409C35.477 25.8104 34.7438 26.0046 33.9979 26.0046C33.2519 26.0046 32.5188 25.8104 31.8703 25.4409L27.8507 23.1067L26.6155 25.2461L30.6419 27.5804C31.291 27.9561 31.83 28.4962 32.2049 29.1464C32.5799 29.7967 32.7775 30.5342 32.778 31.2851V35.9331H35.2211Z" fill="#000080"/>
<path d="M38.2819 11.6883L37.0638 9.54883L25.1209 16.4388C25.6386 17.0895 26.0088 17.8452 26.206 18.6534L38.2819 11.6883Z" fill="#000080"/>
<path d="M19.4669 25.6289V39.983L21.9339 40.0035V25.6016C21.5109 25.6995 21.0782 25.7489 20.6441 25.7485C20.2486 25.7491 19.8541 25.709 19.4669 25.6289Z" fill="#000080"/>
<path d="M4.39156 9.50781L3.15974 11.6507L15.1026 18.5714C15.3118 17.7624 15.695 17.0089 16.2252 16.3636L4.39156 9.50781Z" fill="#000080"/>
<path d="M20.7191 23.1066C22.4322 23.1066 23.8209 21.7157 23.8209 19.9999C23.8209 18.2842 22.4322 16.8933 20.7191 16.8933C19.0061 16.8933 17.6174 18.2842 17.6174 19.9999C17.6174 21.7157 19.0061 23.1066 20.7191 23.1066Z" fill="#000080"/>
<path d="M20.7191 23.1066C22.4322 23.1066 23.8209 21.7157 23.8209 19.9999C23.8209 18.2842 22.4322 16.8933 20.7191 16.8933C19.0061 16.8933 17.6174 18.2842 17.6174 19.9999C17.6174 21.7157 19.0061 23.1066 20.7191 23.1066Z" fill="#000080"/>
</g>
<defs>
<clipPath id="clip0_95_358">
<rect width="240" height="40" fill="white"/>
</clipPath>
</defs>
</svg>
